<svg width="43" height="42" xmlns="http://www.w3.org/2000/svg" fill="none">

 <g>
  <title>Layer 1</title>
  <path id="svg_1" fill="#434343" d="m30.8933,20.8566l3.6634,-3.6633l-8.75,-8.74999l-3.6634,3.66329l-9.66,-9.63662c-1.82,-1.82 -4.7833,-1.82 -6.6033,0l-4.43333,4.43333c-1.82,1.82 -1.82,4.78329 0,6.60329l9.63663,9.6367l-11.0833,11.1067l0,8.75l8.75,0l11.1067,-11.1067l9.6366,9.6367c2.2167,2.2166 5.2034,1.4 6.6034,0l4.4333,-4.4334c1.82,-1.82 1.82,-4.7833 0,-6.6033l-9.6367,-9.6367zm-16.4733,-1.0266l-9.66,-9.63669l4.41,-4.43333l2.9633,2.96333l-2.7533,2.77669l3.29,3.29l2.7767,-2.7767l3.3833,3.3833l-4.41,4.4334zm18.3867,18.41l-9.6367,-9.6367l4.4333,-4.4333l3.3834,3.3833l-2.7767,2.7767l3.29,3.29l2.7767,-2.7767l2.9633,2.9633l-4.4333,4.4334zm8.5166,-27.81336c0.2163,-0.21586 0.388,-0.47227 0.505,-0.75454c0.1171,-0.28227 0.1774,-0.58486 0.1774,-0.89046c0,-0.30559 -0.0603,-0.60818 -0.1774,-0.89045c-0.117,-0.28228 -0.2887,-0.53868 -0.505,-0.75455l-5.46,-5.46c-1.0966,-1.09666 -2.6133,-0.67666 -3.29,0l-4.27,4.27l8.75,8.74996l4.27,-4.26996z"/>
 </g>
</svg>